<svg width="20" height="20" viewBox="0 0 20 20" xmlns="http://www.w3.org/2000/svg">
<path d="M9.34132 0C7.82738 0 4.08236 0.159362 2.09032 2.07171C0.656062 3.42629 0.0982929 5.49801 0.0186116 7.96813C-0.140751 11.8725 0.735743 14.3426 2.17001 15.6175C2.48873 15.8566 3.28554 16.494 4.79949 16.9721V18.9641C4.79949 18.9641 4.79949 19.761 5.27758 19.9203C5.35726 19.9203 5.43694 20 5.51662 20C5.99471 20 6.39311 19.4422 6.95088 18.8845C7.42897 18.3267 7.82738 17.9283 8.06642 17.5299H9.81941C11.3334 17.5299 15.0784 17.3705 17.0704 15.4582C18.5047 14.0239 19.0624 11.9522 19.0624 9.32271C19.1421 8.9243 19.1421 8.44621 19.1421 7.96813C19.0624 5.01992 18.1859 3.02789 16.9907 1.91235C16.5126 1.51394 14.4409 0 9.97877 0H9.34132ZM9.18196 1.51394H9.89909C14.1222 1.51394 15.7158 2.86853 15.8752 3.02789C16.8314 3.8247 17.3891 5.57769 17.4688 7.88845V8.20717C17.5485 8.68526 17.5485 9.08366 17.5485 9.32271C17.4688 11.7131 16.9907 13.3068 16.0345 14.3426C14.3612 15.8566 10.8553 15.9363 9.89909 15.9363H8.38515L7.11024 17.3705L6.31343 18.247L6.15407 18.4861C5.99471 18.6454 5.75566 18.9641 5.5963 19.0438V15.4582C4.00268 15.0598 3.36522 14.502 3.20586 14.3426C2.09032 13.3865 1.45287 11.0757 1.61224 7.96813V7.17131C1.7716 5.25896 2.24969 3.98406 3.0465 3.10757C4.71981 1.59363 8.22578 1.51394 9.18196 1.51394ZM9.10228 3.26693C8.70387 3.26693 8.70387 3.8247 9.10228 3.8247C12.0505 3.8247 14.6003 5.81673 14.6003 9.56175C14.6003 9.96016 15.1581 9.96016 15.1581 9.56175C15.1581 5.49801 12.4489 3.18725 9.10228 3.26693ZM5.94451 4.00398C5.76397 3.98235 5.58212 4.0321 5.43773 4.14263C4.64092 4.54104 3.84331 5.33944 4.08236 6.21594C4.08236 6.21594 4.24172 6.93227 5.11821 8.44621C5.5963 9.16335 5.99471 9.8008 6.39311 10.2789C6.79152 10.8367 7.42897 11.4741 8.06642 11.9522C9.34132 12.988 11.3334 14.0239 12.2098 14.2629C13.0067 14.502 13.8832 13.7052 14.2816 12.9084C14.4409 12.5896 14.3612 12.1912 14.0425 11.9522C13.5644 11.4741 12.7676 10.9163 12.2098 10.5976C11.8114 10.3586 11.3334 10.5179 11.174 10.757L10.7756 11.2351C10.6162 11.4741 10.2178 11.4741 10.2178 11.4741C7.58833 10.757 6.8712 8.04781 6.8712 8.04781C6.8712 8.04781 6.8712 7.72908 7.11024 7.49004L7.58833 7.09163C7.82738 6.93227 7.98674 6.45418 7.74769 6.05578C7.58833 5.81673 7.34929 5.33864 7.11024 5.0996C6.8712 4.78088 6.39311 4.22311 6.39311 4.22311C6.27222 4.10205 6.11431 4.02492 5.94451 4.00398ZM9.66005 4.86056C9.26164 4.78088 9.18196 5.41833 9.58036 5.41833C11.8114 5.57769 13.0863 7.09163 13.0067 9.00398C12.927 9.40239 13.5644 9.40239 13.5644 9.00398C13.6441 6.77291 12.2098 4.94024 9.66005 4.86056ZM9.89909 6.3745C9.50068 6.29482 9.50068 6.93227 9.89909 6.93227C10.8553 6.93227 11.3334 7.49004 11.3334 8.44621C11.413 8.84462 11.9708 8.84462 11.9708 8.44621C11.8911 7.17131 11.174 6.3745 9.89909 6.3745Z"/>
</svg>
