<svg width="52" height="56" viewBox="0 0 52 56" xmlns="http://www.w3.org/2000/svg">
<path d="M36.346 39.8067C36.3059 39.5812 36.1943 39.3776 36.0303 39.2308C35.8663 39.084 35.6601 39.003 35.4468 39.0017H16.5535C16.3402 39.003 16.134 39.084 15.97 39.2308C15.8061 39.3776 15.6945 39.5812 15.6543 39.8067L13.076 54.3434C13.053 54.4866 13.0584 54.6335 13.092 54.7743C13.1257 54.915 13.1867 55.0465 13.271 55.16C13.3593 55.2709 13.4691 55.3597 13.5926 55.4201C13.7161 55.4806 13.8503 55.5113 13.986 55.51H38.0143C38.1499 55.5105 38.2839 55.4795 38.4073 55.4191C38.5307 55.3587 38.6405 55.2703 38.7293 55.16C38.8137 55.0465 38.8747 54.915 38.9083 54.7743C38.9419 54.6335 38.9474 54.4866 38.9243 54.3434L36.346 39.8067ZM21.2985 42.28H30.7018C30.8972 42.28 31.0846 42.3636 31.2227 42.5124C31.3609 42.6612 31.4385 42.863 31.4385 43.0734C31.4385 43.2838 31.3609 43.4856 31.2227 43.6343C31.0846 43.7831 30.8972 43.8667 30.7018 43.8667H21.2985C21.1031 43.8667 20.9157 43.7831 20.7776 43.6343C20.6394 43.4856 20.5618 43.2838 20.5618 43.0734C20.5618 42.863 20.6394 42.6612 20.7776 42.5124C20.9157 42.3636 21.1031 42.28 21.2985 42.28ZM19.7168 46.305H32.2835C32.4789 46.305 32.6662 46.3886 32.8044 46.5374C32.9426 46.6862 33.0202 46.888 33.0202 47.0984C33.0202 47.3088 32.9426 47.5106 32.8044 47.6593C32.6662 47.8081 32.4789 47.8917 32.2835 47.8917H19.7168C19.5215 47.8917 19.3341 47.8081 19.1959 47.6593C19.0578 47.5106 18.9802 47.3088 18.9802 47.0984C18.9802 46.888 19.0578 46.6862 19.1959 46.5374C19.3341 46.3886 19.5215 46.305 19.7168 46.305ZM33.4752 51.9167H18.5252C18.3298 51.9167 18.1424 51.8331 18.0043 51.6843C17.8661 51.5356 17.7885 51.3338 17.7885 51.1234C17.7885 50.913 17.8661 50.7112 18.0043 50.5624C18.1424 50.4136 18.3298 50.33 18.5252 50.33H33.4752C33.6705 50.33 33.8579 50.4136 33.9961 50.5624C34.1342 50.7112 34.2118 50.913 34.2118 51.1234C34.2118 51.3338 34.1342 51.5356 33.9961 51.6843C33.8579 51.8331 33.6705 51.9167 33.4752 51.9167Z"/>
<path d="M37.2448 0.490051H14.7548C14.2463 0.490051 13.834 0.934036 13.834 1.48172V16.7067C13.834 17.2544 14.2463 17.6984 14.7548 17.6984H37.2448C37.7534 17.6984 38.1657 17.2544 38.1657 16.7067V1.48172C38.1657 0.934036 37.7534 0.490051 37.2448 0.490051Z"/>
<path d="M44.4927 25.0133C44.1832 25.011 43.8801 25.1079 43.6219 25.2916C43.3637 25.4753 43.1621 25.7376 43.0427 26.045C42.9233 26.3525 42.8915 26.6912 42.9513 27.0182C43.0112 27.3452 43.16 27.6456 43.3788 27.8812C43.5976 28.1169 43.8766 28.2771 44.1802 28.3416C44.4838 28.406 44.7984 28.3718 45.0838 28.2432C45.3693 28.1146 45.6129 27.8975 45.7834 27.6194C45.954 27.3413 46.044 27.0149 46.0418 26.6817C46.039 26.2402 45.8749 25.8176 45.585 25.5054C45.2951 25.1932 44.9027 25.0164 44.4927 25.0133Z"/>
<path d="M37.061 25.0133C36.7516 25.011 36.4485 25.1079 36.1903 25.2916C35.9321 25.4753 35.7305 25.7376 35.6111 26.045C35.4916 26.3525 35.4598 26.6912 35.5197 27.0182C35.5795 27.3452 35.7283 27.6456 35.9471 27.8812C36.166 28.1169 36.4449 28.2771 36.7485 28.3416C37.0522 28.406 37.3667 28.3718 37.6522 28.2432C37.9377 28.1146 38.1812 27.8975 38.3518 27.6194C38.5224 27.3413 38.6123 27.0149 38.6102 26.6817C38.6102 26.2392 38.447 25.8149 38.1565 25.502C37.8659 25.1891 37.4719 25.0133 37.061 25.0133Z"/>
<path d="M48.0675 18.8767H3.9325C2.89042 18.8798 1.89183 19.327 1.15496 20.1205C0.418093 20.9141 0.00285896 21.9895 0 23.1117L0 39.445C0.00285896 40.5673 0.418093 41.6427 1.15496 42.4362C1.89183 43.2298 2.89042 43.677 3.9325 43.68H12.48C12.7071 43.6811 12.9263 43.5908 13.0947 43.4268C13.263 43.2627 13.3684 43.0368 13.39 42.7934L13.8992 37.8817H38.1008L38.61 42.7934C38.6316 43.0368 38.737 43.2627 38.9053 43.4268C39.0737 43.5908 39.2929 43.6811 39.52 43.68H48.0675C49.1077 43.677 50.1047 43.2314 50.8412 42.4404C51.5778 41.6493 51.9943 40.5769 52 39.4567V23.1234C52 21.9991 51.586 20.9207 50.8489 20.1246C50.1117 19.3286 49.1115 18.8798 48.0675 18.8767ZM17.0408 27.6734H6.02333C5.77911 27.6734 5.5449 27.5689 5.37221 27.3829C5.19952 27.1969 5.1025 26.9447 5.1025 26.6817C5.1025 26.4187 5.19952 26.1665 5.37221 25.9805C5.5449 25.7945 5.77911 25.69 6.02333 25.69H17.0408C17.2851 25.69 17.5193 25.7945 17.692 25.9805C17.8647 26.1665 17.9617 26.4187 17.9617 26.6817C17.9617 26.9447 17.8647 27.1969 17.692 27.3829C17.5193 27.5689 17.2851 27.6734 17.0408 27.6734ZM37.0608 29.9367C36.463 29.9367 35.8787 29.7458 35.3816 29.3881C34.8846 29.0305 34.4972 28.5221 34.2684 27.9273C34.0396 27.3326 33.9798 26.6781 34.0964 26.0467C34.213 25.4153 34.5009 24.8353 34.9236 24.3801C35.3463 23.9249 35.8849 23.6148 36.4712 23.4893C37.0575 23.3637 37.6652 23.4281 38.2175 23.6745C38.7698 23.9208 39.2418 24.338 39.574 24.8733C39.9061 25.4086 40.0833 26.0379 40.0833 26.6817C40.0805 27.544 39.7611 28.3702 39.1949 28.9799C38.6287 29.5897 37.8616 29.9336 37.0608 29.9367ZM44.4925 29.9367C43.8947 29.9367 43.3103 29.7458 42.8133 29.3881C42.3162 29.0305 41.9288 28.5221 41.7001 27.9273C41.4713 27.3326 41.4115 26.6781 41.5281 26.0467C41.6447 25.4153 41.9326 24.8353 42.3553 24.3801C42.778 23.9249 43.3165 23.6148 43.9028 23.4893C44.4892 23.3637 45.0969 23.4281 45.6492 23.6745C46.2015 23.9208 46.6735 24.338 47.0056 24.8733C47.3377 25.4086 47.515 26.0379 47.515 26.6817C47.515 27.545 47.1966 28.3729 46.6297 28.9833C46.0629 29.5938 45.2941 29.9367 44.4925 29.9367Z"/>
</svg>
