<svg width="42" height="56" viewBox="0 0 42 56" xmlns="http://www.w3.org/2000/svg">
<path d="M40.0993 9.10917e-05H8.74768C8.3282 9.10917e-05 7.9259 0.179549 7.62928 0.498986C7.33266 0.818423 7.16602 1.25167 7.16602 1.70342V4.56176H33.2527C33.7743 4.55714 34.2916 4.66341 34.775 4.87448C35.2584 5.08554 35.6984 5.39725 36.0697 5.79174C36.4411 6.18624 36.7365 6.65576 36.9391 7.17342C37.1416 7.69108 37.2473 8.24669 37.2502 8.80842V48.8951H40.1427C40.5622 48.8951 40.9645 48.7156 41.2611 48.3962C41.5577 48.0768 41.7243 47.6435 41.7243 47.1918V1.69176C41.723 1.46507 41.6796 1.24097 41.5968 1.03256C41.514 0.824161 41.3933 0.63566 41.242 0.478107C41.0907 0.320554 40.9116 0.197119 40.7154 0.115037C40.5192 0.0329545 40.3098 -0.00612428 40.0993 9.10917e-05Z"/>
<path d="M33.2527 7.10504H1.901C1.4824 7.1081 1.08174 7.28854 0.785732 7.60731C0.489725 7.92609 0.322174 8.35757 0.319336 8.80838V54.3084C0.322196 54.7581 0.490098 55.1884 0.786408 55.5053C1.08272 55.8222 1.48339 56.0001 1.901 56H33.2527C33.4613 56.0016 33.6681 55.9587 33.8613 55.8737C34.0544 55.7888 34.2301 55.6636 34.3781 55.5053C34.5261 55.347 34.6436 55.1587 34.7237 54.9513C34.8039 54.7438 34.8452 54.5214 34.8452 54.2967V8.79671C34.8395 8.34592 34.6692 7.91567 34.3711 7.59908C34.0731 7.28248 33.6713 7.105 33.2527 7.10504ZM6.49434 13.4867H15.291V22.96H6.49434V13.4867ZM28.161 48.4867H6.98184V45.5H28.1827L28.161 48.4867ZM28.161 42.35H6.98184V39.3167H28.1827L28.161 42.35ZM28.161 36.225H6.98184V33.18H28.1827L28.161 36.225ZM28.161 30.0884H6.98184V27.0434H28.1827L28.161 30.0884Z"/>
</svg>
