<svg width="52" height="56" viewBox="0 0 52 56" xmlns="http://www.w3.org/2000/svg">
<path d="M50.3643 8.63334C49.9635 3.76834 47.3418 6.07967e-06 44.5035 0.291673L4.49601 4.03667C1.64684 4.30501 -0.335662 8.48167 0.0651717 13.37C0.466005 18.2583 3.08767 21.98 5.926 21.7117L6.28351 21.6533L45.5652 17.9667H45.9335C48.7502 17.6867 50.7543 13.51 50.3643 8.63334ZM5.64434 18.1533C3.95434 18.3167 2.39434 16.0767 2.14517 13.1717C1.89601 10.2667 3.08767 7.77001 4.78851 7.60667C6.48934 7.44334 8.03851 9.67167 8.2985 12.5883C8.55851 15.505 7.34517 17.99 5.64434 18.1533Z"/>
<path d="M52 28.175C51.61 23.2983 48.9883 19.565 46.15 19.8217H45.6733C49.4 25.8183 47.7425 32.2583 46.3342 37.555L47.2225 37.4733H47.58C50.3642 37.2167 52.3467 33.0517 52 28.175Z"/>
<path d="M41.7948 20.2067L15.6865 22.68C24.4181 32.9467 9.64148 45.5 18.4165 55.7317L44.5356 53.2817C35.7498 42.9917 50.5265 30.4967 41.7948 20.2067ZM37.0823 25.2C37.3155 26.008 37.4644 26.8415 37.5265 27.685L29.3256 28.455C29.2636 27.6115 29.1146 26.778 28.8815 25.97L37.0823 25.2ZM37.5698 28.7C37.5747 29.551 37.5203 30.4011 37.4073 31.2433L29.2498 32.0017C29.3629 31.1594 29.4172 30.3093 29.4123 29.4583L37.5698 28.7ZM27.7115 26.0983C28.2451 28.0518 28.3599 30.1102 28.0473 32.1183L22.4573 32.6667C22.7792 30.6597 22.668 28.5999 22.1323 26.6467L27.7115 26.0983ZM19.619 48.685C19.5648 47.9278 19.5648 47.1672 19.619 46.41L36.129 44.8583C36.0747 45.6116 36.0747 46.3684 36.129 47.1217L19.619 48.685ZM36.259 43.3883L19.7381 44.94C19.8356 44.1817 19.9873 43.4117 20.1498 42.6067L36.6598 41.055C36.4973 41.8483 36.3565 42.6183 36.259 43.3883ZM37.0065 39.5967L20.4965 41.1483C20.6806 40.3783 20.8865 39.5967 21.0923 38.815L37.6131 37.2517C37.4073 38.045 37.2015 38.815 37.0065 39.5967ZM38.0031 35.7817L21.4823 37.3333C21.6881 36.5633 21.8723 35.7817 22.0456 35L38.5556 33.4367C38.3931 34.23 38.1981 35 38.0031 35.7817Z"/>
<path d="M12.5016 22.9717L6.07745 23.5783C3.23912 23.835 1.25662 28.0117 1.64662 32.9117C2.03662 37.8117 4.66912 41.5217 7.51828 41.2534H7.87578L13.2924 40.74C13.4983 39.9 13.7149 39.0834 13.9208 38.3017C15.4916 32.3867 16.3041 28.595 13.3033 25.0717C12.8217 24.4905 12.5389 23.7496 12.5016 22.9717ZM7.23662 37.6833C5.53578 37.8467 3.98662 35.6184 3.72662 32.7017C3.46662 29.785 4.67995 27.3 6.38078 27.1367C8.08161 26.9733 9.63078 29.2133 9.87995 32.13C10.1291 35.0467 8.93745 37.5317 7.23662 37.6833Z"/>
</svg>
