<?xml version="1.0" encoding="utf-8"?><svg viewBox="0 0 52 56" xmlns="http://www.w3.org/2000/svg" xmlns:xlink="http://www.w3.org/1999/xlink"><style>:root>svg{display:none}:root>svg:target{display:block}</style><svg viewBox="0 0 52 56" id="advantage-1" xmlns="http://www.w3.org/2000/svg"><path d="M50.364 8.633c-.4-4.865-3.022-8.633-5.86-8.341L4.495 4.037c-2.85.268-4.832 4.445-4.43 9.333.4 4.888 3.022 8.61 5.86 8.342l.358-.059 39.281-3.686h.369c2.816-.28 4.82-4.457 4.43-9.334zm-44.72 9.52c-1.69.164-3.25-2.076-3.499-4.981-.249-2.905.943-5.402 2.644-5.565 1.7-.164 3.25 2.065 3.51 4.981.26 2.917-.954 5.402-2.655 5.565zM52 28.175c-.39-4.877-3.012-8.61-5.85-8.353h-.477c3.727 5.996 2.07 12.436.661 17.733l.888-.082h.358c2.784-.256 4.767-4.421 4.42-9.298z"/><path d="M41.795 20.207L15.687 22.68c8.731 10.267-6.046 22.82 2.73 33.052l26.119-2.45c-8.786-10.29 5.99-22.785-2.741-33.075zM37.082 25.2c.233.808.382 1.642.444 2.485l-8.2.77a12.193 12.193 0 00-.445-2.485l8.201-.77zm.488 3.5c.005.851-.05 1.701-.163 2.543l-8.157.759c.113-.843.167-1.693.162-2.544l8.158-.758zm-9.858-2.602a14.45 14.45 0 01.335 6.02l-5.59.549a14.26 14.26 0 00-.325-6.02l5.58-.549zm-8.093 22.587a15.936 15.936 0 010-2.275l16.51-1.552a15.84 15.84 0 000 2.264l-16.51 1.563zm16.64-5.297l-16.52 1.552c.097-.758.248-1.528.41-2.333l16.51-1.552a31.085 31.085 0 00-.4 2.333zm.748-3.791l-16.51 1.551c.184-.77.39-1.551.595-2.333l16.521-1.563c-.206.793-.411 1.563-.606 2.345zm.996-3.815l-16.52 1.551c.205-.77.39-1.551.563-2.333l16.51-1.563c-.163.793-.358 1.563-.553 2.345z"/><path d="M12.502 22.972l-6.425.606c-2.838.257-4.82 4.434-4.43 9.334.39 4.9 3.022 8.61 5.871 8.341h.358l5.416-.513c.206-.84.423-1.657.629-2.438 1.57-5.915 2.383-9.707-.618-13.23a3.562 3.562 0 01-.801-2.1zM7.237 37.683c-1.701.164-3.25-2.065-3.51-4.981-.26-2.917.953-5.402 2.654-5.565 1.7-.164 3.25 2.076 3.499 4.993.25 2.917-.943 5.402-2.643 5.553z"/></svg><svg viewBox="0 0 52 56" id="advantage-2" xmlns="http://www.w3.org/2000/svg"><path d="M36.346 39.807a1.009 1.009 0 00-.316-.576.882.882 0 00-.583-.23H16.553a.882.882 0 00-.583.23 1.01 1.01 0 00-.316.576l-2.578 14.536a1.097 1.097 0 00.195.817c.088.11.198.2.322.26a.88.88 0 00.393.09h24.028c.136 0 .27-.03.393-.09a.951.951 0 00.322-.26c.085-.113.146-.245.18-.386.033-.14.038-.287.015-.43l-2.578-14.537zM21.299 42.28h9.403a.71.71 0 01.52.232c.139.15.216.351.216.561 0 .21-.077.413-.215.561a.71.71 0 01-.521.233h-9.404a.71.71 0 01-.52-.233.825.825 0 01-.216-.56c0-.211.077-.413.216-.562a.71.71 0 01.52-.232zm-1.582 4.025h12.566c.196 0 .383.084.521.232.139.15.216.351.216.561a.82.82 0 01-.216.561.711.711 0 01-.52.233H19.716a.711.711 0 01-.521-.233.825.825 0 01-.216-.56c0-.211.078-.413.216-.562a.711.711 0 01.52-.232zm13.758 5.612h-14.95a.71.71 0 01-.52-.233.825.825 0 01-.216-.56c0-.211.077-.413.215-.562a.71.71 0 01.521-.232h14.95c.195 0 .383.084.521.232a.83.83 0 01.216.561c0 .21-.078.413-.216.561a.711.711 0 01-.52.233zM37.245.49h-22.49c-.509 0-.921.444-.921.992v15.225c0 .547.412.991.92.991h22.49c.51 0 .922-.444.922-.991V1.482c0-.548-.413-.992-.921-.992zm7.248 24.523a1.481 1.481 0 00-.871.279c-.258.183-.46.446-.58.753a1.8 1.8 0 00-.09.973c.06.327.208.628.427.863.219.236.498.396.801.46.304.065.618.03.904-.098a1.59 1.59 0 00.7-.624c.17-.278.26-.604.258-.937a1.747 1.747 0 00-.457-1.177 1.507 1.507 0 00-1.092-.492zm-7.432 0a1.481 1.481 0 00-.87.279c-.259.183-.46.446-.58.753-.12.307-.151.646-.091.973.06.327.208.628.427.863.219.236.498.396.801.46.304.065.619.03.904-.098.286-.128.53-.345.7-.624.17-.278.26-.604.258-.937 0-.443-.163-.867-.453-1.18a1.495 1.495 0 00-1.096-.489z"/><path d="M48.068 18.877H3.931c-1.042.003-2.04.45-2.777 1.244A4.417 4.417 0 000 23.11v16.334a4.417 4.417 0 001.155 2.991c.737.794 1.735 1.241 2.777 1.244h8.548a.875.875 0 00.615-.253 1.01 1.01 0 00.295-.634l.51-4.911h24.2l.51 4.911c.022.244.127.47.295.634a.875.875 0 00.615.253h8.547c1.04-.003 2.038-.449 2.774-1.24A4.416 4.416 0 0052 39.457V23.123a4.42 4.42 0 00-1.151-2.998c-.737-.796-1.737-1.245-2.781-1.248zM17.04 27.673H6.023a.889.889 0 01-.65-.29 1.032 1.032 0 01-.27-.701c0-.263.097-.515.27-.701a.889.889 0 01.65-.291h11.018c.244 0 .478.104.651.29.173.186.27.439.27.702 0 .263-.097.515-.27.7a.889.889 0 01-.651.291zm20.02 2.264a2.873 2.873 0 01-1.68-.549 3.215 3.215 0 01-1.113-1.46 3.488 3.488 0 01-.172-1.881 3.34 3.34 0 01.828-1.667 2.962 2.962 0 011.547-.89 2.822 2.822 0 011.747.184 3.083 3.083 0 011.356 1.2c.332.535.51 1.164.51 1.808a3.397 3.397 0 01-.89 2.298 2.928 2.928 0 01-2.133.957zm7.431 0a2.87 2.87 0 01-1.679-.549 3.214 3.214 0 01-1.113-1.46 3.488 3.488 0 01-.172-1.881 3.34 3.34 0 01.827-1.667 2.962 2.962 0 011.548-.89 2.822 2.822 0 011.746.184 3.082 3.082 0 011.357 1.2c.332.535.509 1.164.509 1.808 0 .863-.318 1.69-.885 2.301a2.917 2.917 0 01-2.138.954z"/></svg><svg viewBox="0 0 42 56" id="advantage-3" xmlns="http://www.w3.org/2000/svg"><path d="M40.1 0H8.747c-.42 0-.822.18-1.119.499-.296.32-.463.753-.463 1.204v2.859h26.087a3.718 3.718 0 011.522.312c.483.212.923.523 1.295.918a4.3 4.3 0 01.87 1.381c.202.518.307 1.074.31 1.635v40.087h2.893c.42 0 .822-.18 1.118-.499a1.77 1.77 0 00.463-1.204v-45.5a1.815 1.815 0 00-.127-.66 1.713 1.713 0 00-.355-.554 1.573 1.573 0 00-.527-.363A1.48 1.48 0 0040.1 0z"/><path d="M33.253 7.105H1.9c-.419.003-.82.184-1.115.502-.296.32-.464.75-.467 1.201v45.5c.003.45.171.88.467 1.197.297.317.697.495 1.115.495h31.352c.208.002.415-.041.608-.126.193-.085.37-.21.517-.369.148-.158.266-.346.346-.554.08-.207.121-.43.121-.654v-45.5a1.781 1.781 0 00-.474-1.198 1.536 1.536 0 00-1.118-.494zM6.494 13.487h8.797v9.473H6.494v-9.473zm21.667 35H6.981V45.5h21.202l-.022 2.987zm0-6.137H6.981v-3.033h21.202l-.022 3.033zm0-6.125H6.981V33.18h21.202l-.022 3.045zm0-6.137H6.981v-3.045h21.202l-.022 3.045z"/></svg><svg viewBox="0 0 22 18" id="socials--email" xmlns="http://www.w3.org/2000/svg"><path d="M22 4.67v9.869a3.47 3.47 0 01-1.007 2.447A3.425 3.425 0 0118.563 18H3.438a3.425 3.425 0 01-2.431-1.014A3.474 3.474 0 010 14.54V4.67l10.65 6.311a.684.684 0 00.7 0L22 4.671zM18.562 0c.846 0 1.662.314 2.293.882a3.47 3.47 0 011.124 2.196L11 9.582.02 3.078A3.47 3.47 0 011.146.882 3.424 3.424 0 013.438 0h15.124z"/></svg><svg viewBox="0 0 20 20" id="socials--insta" xmlns="http://www.w3.org/2000/svg"><path fill-rule="evenodd" clip-rule="evenodd" d="M10 0C7.284 0 6.944.012 5.877.06 4.813.109 4.086.278 3.45.525a4.901 4.901 0 00-1.772 1.153A4.902 4.902 0 00.525 3.45C.278 4.086.109 4.813.06 5.877.011 6.944 0 7.284 0 10s.011 3.056.06 4.123c.049 1.064.218 1.791.465 2.427.25.668.644 1.272 1.153 1.772.5.509 1.105.902 1.772 1.153.636.247 1.363.416 2.427.465 1.067.048 1.407.06 4.123.06s3.056-.012 4.123-.06c1.064-.049 1.791-.218 2.427-.465a4.903 4.903 0 001.772-1.153c.509-.5.902-1.104 1.153-1.772.247-.636.416-1.363.465-2.427.048-1.067.06-1.407.06-4.123s-.012-3.056-.06-4.123c-.049-1.064-.218-1.791-.465-2.427a4.903 4.903 0 00-1.153-1.772A4.901 4.901 0 0016.55.525C15.914.278 15.187.109 14.123.06 13.056.012 12.716 0 10 0zm0 1.802c2.67 0 2.986.01 4.04.058.976.045 1.505.207 1.858.344.466.182.8.399 1.15.748.35.35.566.684.748 1.15.136.353.3.882.344 1.857.048 1.055.058 1.37.058 4.041 0 2.67-.01 2.986-.058 4.04-.045.976-.208 1.505-.344 1.858a3.1 3.1 0 01-.748 1.15c-.35.35-.684.566-1.15.748-.353.136-.882.3-1.857.344-1.054.048-1.37.058-4.041.058-2.67 0-2.987-.01-4.04-.058-.976-.045-1.505-.208-1.858-.344a3.099 3.099 0 01-1.15-.748 3.098 3.098 0 01-.748-1.15c-.137-.353-.3-.882-.344-1.857-.048-1.055-.058-1.37-.058-4.041 0-2.67.01-2.986.058-4.04.045-.976.207-1.505.344-1.858.182-.466.399-.8.748-1.15.35-.35.684-.566 1.15-.748.353-.137.882-.3 1.857-.344 1.055-.048 1.37-.058 4.041-.058zm0 11.531a3.333 3.333 0 110-6.666 3.333 3.333 0 010 6.666zm0-8.468a5.135 5.135 0 100 10.27 5.135 5.135 0 000-10.27zm6.538-.203a1.2 1.2 0 11-2.4 0 1.2 1.2 0 012.4 0z"/></svg><svg viewBox="0 0 20 20" id="socials--viber" xmlns="http://www.w3.org/2000/svg"><path d="M9.341 0c-1.514 0-5.259.16-7.25 2.072C.655 3.426.097 5.498.018 7.968c-.16 3.905.717 6.375 2.151 7.65.319.239 1.116.876 2.63 1.354v1.992s0 .797.478.956c.08 0 .159.08.239.08.478 0 .876-.558 1.434-1.116.478-.557.876-.956 1.115-1.354H9.82c1.514 0 5.26-.16 7.251-2.072 1.435-1.434 1.992-3.506 1.992-6.135.08-.399.08-.877.08-1.355-.08-2.948-.956-4.94-2.151-6.056C16.513 1.514 14.44 0 9.979 0H9.34zm-.159 1.514h.717c4.223 0 5.817 1.355 5.976 1.514.956.797 1.514 2.55 1.594 4.86v.32c.08.477.08.876.08 1.115-.08 2.39-.558 3.984-1.514 5.02-1.674 1.514-5.18 1.593-6.136 1.593H8.385L7.11 17.37l-.797.877-.159.24c-.16.158-.398.477-.558.557v-3.586c-1.593-.398-2.23-.956-2.39-1.115-1.116-.957-1.753-3.267-1.594-6.375v-.797c.16-1.912.638-3.187 1.434-4.063 1.674-1.514 5.18-1.594 6.136-1.594zm-.08 1.753a.28.28 0 000 .558c2.948 0 5.498 1.992 5.498 5.737a.28.28 0 00.558 0c0-4.064-2.71-6.375-6.056-6.295zm-3.157.737a.697.697 0 00-.507.139c-.797.398-1.595 1.196-1.356 2.073 0 0 .16.716 1.036 2.23.478.717.877 1.355 1.275 1.833.399.558 1.036 1.195 1.673 1.673 1.275 1.036 3.267 2.072 4.144 2.31.797.24 1.673-.557 2.072-1.354a.76.76 0 00-.24-.956c-.478-.478-1.274-1.036-1.832-1.354-.399-.24-.877-.08-1.036.159l-.398.478c-.16.24-.558.24-.558.24-2.63-.718-3.347-3.427-3.347-3.427s0-.319.24-.558l.477-.398c.24-.16.399-.638.16-1.036-.16-.24-.399-.717-.638-.956-.239-.32-.717-.877-.717-.877a.767.767 0 00-.448-.219zm3.715.857c-.398-.08-.478.557-.08.557 2.231.16 3.506 1.674 3.427 3.586-.08.398.557.398.557 0 .08-2.231-1.354-4.064-3.904-4.143zm.24 1.514c-.4-.08-.4.557 0 .557.955 0 1.433.558 1.433 1.514.08.399.638.399.638 0-.08-1.275-.797-2.071-2.072-2.071z"/></svg><svg viewBox="0 0 20 20" id="socials--wa" xmlns="http://www.w3.org/2000/svg"><path d="M14.58 11.986c-.25-.127-1.471-.723-1.7-.808-.228-.081-.393-.124-.56.127-.162.244-.64.804-.787.967-.146.163-.29.175-.537.065-.25-.127-1.051-.388-2.002-1.24-.742-.66-1.236-1.474-1.383-1.725-.147-.248-.017-.388.107-.511.114-.114.25-.287.378-.437.12-.15.159-.25.247-.413.081-.175.04-.312-.022-.436s-.56-1.35-.768-1.84c-.2-.484-.407-.423-.56-.423-.144-.013-.31-.013-.476-.013a.942.942 0 00-.664.3c-.228.25-.872.85-.872 2.06 0 1.215.891 2.39 1.015 2.565.127.163 1.755 2.663 4.252 3.737.595.25 1.058.4 1.419.525.595.188 1.14.162 1.569.1.475-.078 1.47-.602 1.68-1.188.211-.59.211-1.077.15-1.188-.062-.114-.225-.176-.475-.286l-.011.062zm-4.541 6.139c-1.478 0-2.94-.4-4.216-1.15l-.3-.178-3.124.814.84-3.041-.202-.313a8.229 8.229 0 01-1.263-4.38c0-4.538 3.714-8.24 8.284-8.24 2.214 0 4.29.863 5.853 2.425a8.162 8.162 0 012.425 5.827c-.006 4.535-3.717 8.236-8.281 8.236h-.016zm7.06-15.25C15.2 1.037 12.7 0 10.04 0 4.554 0 .088 4.447.084 9.912c0 1.745.456 3.447 1.329 4.954L0 20l5.28-1.377a10.081 10.081 0 004.76 1.208h.003c5.488 0 9.954-4.447 9.957-9.916a9.82 9.82 0 00-2.913-7.009l.012-.032z"/></svg></svg>